<svg width="346" height="76" viewBox="0 0 346 76" fill="none" xmlns="http://www.w3.org/2000/svg">
<path d="M93 29.7C93 46.8 93.7 49.9 98.9 54.2C105.8 60 117.2 58.2 122 50.5C126.6 43.1 124.1 31.1 117.2 27.6C111.6 24.8 108.4 24.8 101.8 27.5C100.3 28.1 100.1 27.3 99.8 21.9C99.5 15.7 99.5 15.6 96.3 14.9L93 14.3V29.7ZM114.1 34.9C121.1 42 113.8 53.9 104.5 50.4C102.3 49.5 100 44.7 100 40.7C100 38.3 100.8 36.5 102.6 34.6C106.2 31.1 110.3 31.2 114.1 34.9Z" fill="#ED1651"/>
<path d="M197.3 15.6C197 16.4 196.9 23.6 197.1 31.8C197.6 48.4 198.7 51.7 205 55.4C209.7 58.2 218 58.1 221.7 55.4C227 51.4 228.5 48.4 228.5 41.5C228.5 34.7 227 31.6 221.7 27.6C218.6 25.3 209.8 24.8 207.8 26.8C205.4 29.2 204.5 28 204.8 23C205 20.2 204.7 17.3 204.1 16.6C202.4 14.6 198 14 197.3 15.6ZM217.1 33C222.4 35.9 223.2 45.1 218.3 49C213.5 52.8 207.8 51.2 205.4 45.3C202 37.2 209.6 29.1 217.1 33Z" fill="#ED1651"/>
<path d="M20.5 16.2C17.3 17.9 16 20.1 16 24.1C16 31.2 24.5 34.6 29.5 29.5C33.6 25.5 32.8 19 27.9 16.5C24.6 14.7 23.2 14.7 20.5 16.2Z" fill="#ED1651"/>
<path d="M49.5 16.2C46.3 17.9 45 20.1 45 24.1C45 31.2 53.5 34.6 58.5 29.5C62.6 25.5 61.8 19 56.9 16.5C53.6 14.7 52.2 14.7 49.5 16.2Z" fill="#ED1651"/>
<path d="M140.101 26C132.201 27.9 127.701 34.3 128.301 42.8C128.901 51.8 135.201 57.4 144.501 57.4C154.201 57.4 161.001 50.9 161.001 41.5C161.001 30.7 151.201 23.4 140.101 26ZM150.701 34.4C153.001 36.4 153.501 37.6 153.501 41.5C153.501 45.4 153.001 46.6 150.701 48.6C145.601 53 138.601 51.3 136.001 45.1C132.201 35.9 143.201 28 150.701 34.4Z" fill="#ED1651"/>
<path d="M162.601 26.2C163.001 26.9 165.301 30.3 167.701 33.6C170.101 37 172.001 40.1 172.001 40.5C172.001 40.8 169.901 44.4 167.301 48.3C164.601 52.3 162.401 55.8 162.201 56.2C162.001 56.7 163.401 57 165.301 57C169.401 57 173.201 54.2 175.001 50C175.701 48.4 176.601 47 177.001 47C177.501 47 179.001 49 180.401 51.4C182.901 55.7 185.101 57 190.201 57H193.001L187.601 48.8L182.201 40.5L187.701 32.7L193.101 24.9L188.301 25.2C183.801 25.5 183.301 25.8 180.401 30.3L177.201 35.1L175.001 31.5C173.801 29.6 172.101 27.3 171.301 26.5C169.501 24.6 161.501 24.4 162.601 26.2Z" fill="#ED1651"/>
<path d="M241.1 26.8C236.1 29.3 233.7 33.1 233.2 39.3C232.6 46.5 234.9 51.3 240.5 54.5C247 58.4 257.9 57.5 261.7 52.8C262.8 51.6 262.7 51 261.2 49.6C259.5 48.1 259 48.1 255.7 49.5C253.7 50.3 251.1 51 250 51C246.7 51 242.5 48.4 241.2 45.6L240 43H251.5H263V39.7C263 28.7 251 21.7 241.1 26.8ZM254 33C257.3 36.3 256.4 37 248.5 37C242.6 37 241 36.7 241 35.6C241 31.3 250.5 29.5 254 33Z" fill="#ED1651"/>
<path d="M269 40.5V56H272.5H276V49.7C276.1 37.8 278.9 32 284.6 32C286.7 32 287 31.5 287 28.5C287 25.4 286.7 25 284.3 25C282.7 25 280.4 26.1 278.8 27.7C276.2 30.2 276 30.3 276 28.3C276 26.1 274.2 25 270.9 25C269.1 25 269 25.9 269 40.5Z" fill="#ED1651"/>
<path d="M292 40.4V56H295.5H299V47.1C299 38.9 299.2 37.9 301.6 35.1C303.4 32.9 305.1 32 307.1 32C309.7 32 310 31.7 310 28.5C310 25.3 309.8 25 307 25C305.1 25 303 25.9 301.6 27.3C299.3 29.6 299.3 29.6 298.4 27.6C297.9 26.4 296.4 25.4 294.8 25.2L292 24.9V40.4Z" fill="#ED1651"/>
<path d="M313.901 27.2C314.401 28.5 317.301 35.3 320.401 42.4C325.801 54.6 326.001 55.4 324.501 57.6C323.701 58.9 322.101 60 321.001 60C319.001 60 315.701 63.8 316.601 65.2C316.901 65.6 319.101 66 321.601 66C327.901 66 329.601 63.9 335.901 48.5C338.801 41.3 342.201 33.1 343.501 30.2L345.901 25H342.101C340.001 25 337.801 25.6 337.301 26.2C336.701 26.9 334.801 31.7 333.001 36.8L329.701 46.2L326.101 37.2C321.701 26.3 320.701 25 316.401 25C313.301 25 313.101 25.2 313.901 27.2Z" fill="#ED1651"/>
<path d="M3.50039 32.5C0.200391 35.7 0.200391 40.3 3.50039 43.5C6.80039 46.9 12.2004 46.9 15.5004 43.5C20.7004 38.4 17.0004 30 9.50039 30C7.00039 30 5.10039 30.8 3.50039 32.5Z" fill="#ED1651"/>
<path d="M32.4999 32.5C25.1999 39.8 35.9999 50.6 44.0999 44.1C47.3999 41.4 47.3999 34.6 44.0999 31.9C40.7999 29.2 35.4999 29.4 32.4999 32.5Z" fill="#ED1651"/>
<path d="M61.4999 32.5C54.1999 39.8 64.9999 50.6 73.0999 44.1C76.3999 41.4 76.3999 34.6 73.0999 31.9C69.7999 29.2 64.4999 29.4 61.4999 32.5Z" fill="#ED1651"/>
<path d="M18.6 46.1C16.7 47.6 16 49.1 16 51.6C16 56.3 17.3 58.5 21 60C24.5 61.5 29.4 60 31 56.9C35.5 48.7 25.9 40.3 18.6 46.1Z" fill="#ED1651"/>
<path d="M47.6 46.1C45.7 47.6 45 49.1 45 51.6C45 56.3 46.3 58.5 50 60C53.5 61.5 58.4 60 60 56.9C64.5 48.7 54.9 40.3 47.6 46.1Z" fill="#ED1651"/>
<path d="M35.4 59C32.8 60 30 63.8 30 66.2C30 70.9 34.2 75 39.1 75C42 75 47 69.7 47 66.6C47 61.4 40.2 57 35.4 59Z" fill="#ED1651"/>
<path d="M35.4 2.49268C32.8 3.49268 30 7.29268 30 9.69268C30 14.3927 34.2 18.4927 39.1 18.4927C42 18.4927 47 13.1927 47 10.0927C47 4.89268 40.2 0.492676 35.4 2.49268Z" fill="#A6CE39"/>
</svg>
