<svg version="1.0" xmlns="http://www.w3.org/2000/svg"
 width="346.000000pt" height="76.000000pt" viewBox="0 0 346.000000 76.000000"
 preserveAspectRatio="xMidYMid meet">

<g transform="translate(0.000000,76.000000) scale(0.100000,-0.100000)"
fill="#000000" stroke="none">
<path d="M930 463 c0 -171 7 -202 59 -245 69 -58 183 -40 231 37 46 74 21 194
-48 229 -56 28 -88 28 -154 1 -15 -6 -17 2 -20 56 -3 62 -3 63 -35 70 l-33 6
0 -154z m211 -52 c70 -71 -3 -190 -96 -155 -22 9 -45 57 -45 97 0 24 8 42 26
61 36 35 77 34 115 -3z"/>
<path d="M1973 604 c-3 -8 -4 -80 -2 -162 5 -166 16 -199 79 -236 47 -28 130
-27 167 0 53 40 68 70 68 139 0 68 -15 99 -68 139 -31 23 -119 28 -139 8 -24
-24 -33 -12 -30 38 2 28 -1 57 -7 64 -17 20 -61 26 -68 10z m198 -174 c53 -29
61 -121 12 -160 -48 -38 -105 -22 -129 37 -34 81 42 162 117 123z"/>
<path d="M205 598 c-32 -17 -45 -39 -45 -79 0 -71 85 -105 135 -54 41 40 33
105 -16 130 -33 18 -47 18 -74 3z"/>
<path d="M495 598 c-32 -17 -45 -39 -45 -79 0 -71 85 -105 135 -54 41 40 33
105 -16 130 -33 18 -47 18 -74 3z"/>
<path d="M1401 500 c-79 -19 -124 -83 -118 -168 6 -90 69 -146 162 -146 97 0
165 65 165 159 0 108 -98 181 -209 155z m106 -84 c23 -20 28 -32 28 -71 0 -39
-5 -51 -28 -71 -51 -44 -121 -27 -147 35 -38 92 72 171 147 107z"/>
<path d="M1626 498 c4 -7 27 -41 51 -74 24 -34 43 -65 43 -69 0 -3 -21 -39
-47 -78 -27 -40 -49 -75 -51 -79 -2 -5 12 -8 31 -8 41 0 79 28 97 70 7 16 16
30 20 30 5 0 20 -20 34 -44 25 -43 47 -56 98 -56 l28 0 -54 82 -54 83 55 78
54 78 -48 -3 c-45 -3 -50 -6 -79 -51 l-32 -48 -22 36 c-12 19 -29 42 -37 50
-18 19 -98 21 -87 3z"/>
<path d="M2411 492 c-50 -25 -74 -63 -79 -125 -6 -72 17 -120 73 -152 65 -39
174 -30 212 17 11 12 10 18 -5 32 -17 15 -22 15 -55 1 -20 -8 -46 -15 -57 -15
-33 0 -75 26 -88 54 l-12 26 115 0 115 0 0 33 c0 110 -120 180 -219 129z m129
-62 c33 -33 24 -40 -55 -40 -59 0 -75 3 -75 14 0 43 95 61 130 26z"/>
<path d="M2690 355 l0 -155 35 0 35 0 0 63 c1 119 29 177 86 177 21 0 24 5 24
35 0 31 -3 35 -27 35 -16 0 -39 -11 -55 -27 -26 -25 -28 -26 -28 -6 0 22 -18
33 -51 33 -18 0 -19 -9 -19 -155z"/>
<path d="M2920 356 l0 -156 35 0 35 0 0 89 c0 82 2 92 26 120 18 22 35 31 55
31 26 0 29 3 29 35 0 32 -2 35 -30 35 -19 0 -40 -9 -54 -23 -23 -23 -23 -23
-32 -3 -5 12 -20 22 -36 24 l-28 3 0 -155z"/>
<path d="M3139 488 c5 -13 34 -81 65 -152 54 -122 56 -130 41 -152 -8 -13 -24
-24 -35 -24 -20 0 -53 -38 -44 -52 3 -4 25 -8 50 -8 63 0 80 21 143 175 29 72
63 154 76 183 l24 52 -38 0 c-21 0 -43 -6 -48 -12 -6 -7 -25 -55 -43 -106
l-33 -94 -36 90 c-44 109 -54 122 -97 122 -31 0 -33 -2 -25 -22z"/>
<path d="M35 435 c-33 -32 -33 -78 0 -110 33 -34 87 -34 120 0 52 51 15 135
-60 135 -25 0 -44 -8 -60 -25z"/>
<path d="M325 435 c-73 -73 35 -181 116 -116 33 27 33 95 0 122 -33 27 -86 25
-116 -6z"/>
<path d="M615 435 c-73 -73 35 -181 116 -116 33 27 33 95 0 122 -33 27 -86 25
-116 -6z"/>
<path d="M186 299 c-19 -15 -26 -30 -26 -55 0 -47 13 -69 50 -84 35 -15 84 0
100 31 45 82 -51 166 -124 108z"/>
<path d="M476 299 c-19 -15 -26 -30 -26 -55 0 -47 13 -69 50 -84 35 -15 84 0
100 31 45 82 -51 166 -124 108z"/>
<path d="M354 170 c-26 -10 -54 -48 -54 -72 0 -47 42 -88 91 -88 29 0 79 53
79 84 0 52 -68 96 -116 76z"/>
</g>
</svg>
