<svg xmlns="http://www.w3.org/2000/svg" id="Слой_1" x="0px" y="0px" width="341.7px" height="190.1px" viewBox="0 0 341.7 190.1" style="enable-background:new 0 0 341.7 190.1;" xml:space="preserve"> <style type="text/css"> .st0{fill:#008752;} .st1{fill:#7AC143;} .st2{fill:none;} </style> <path class="st0" d="M23.7,0.7h16.8c9.8,0,14.3,5.4,12.2,13.2c-2.3,8.8-11,13.3-20.2,13.3h-6.9l-3,11.4h-9.1L23.7,0.7z M34.8,19.8 c4.5,0,7.8-2.5,8.7-5.8c1-3.7-1.3-5.7-5.8-5.7h-7l-3.1,11.6H34.8z"></path> <path class="st0" d="M54.8,19.6C57.7,8.8,69.3,0,82,0s19.5,8.7,16.6,19.6c-2.9,10.8-14.5,19.6-27.2,19.6 C58.7,39.2,51.9,30.5,54.8,19.6 M89.1,19.6c1.7-6.5-2-11.9-9.3-11.9c-7.3,0-13.8,5.3-15.5,11.9c-1.7,6.5,2,11.9,9.3,11.9 C80.9,31.5,87.4,26.2,89.1,19.6"></path> <polygon class="st0" points="109.1,0.7 117.5,0.7 130.5,24 136.8,0.7 145.7,0.7 135.5,38.5 127.8,38.5 114.3,14.5 107.9,38.5 98.9,38.5 "></polygon> <polygon class="st0" points="159.6,23.6 149.9,0.7 160.5,0.7 166.3,15.9 180.4,0.7 190.7,0.7 168.7,23.4 164.7,38.5 155.6,38.5 "></polygon> <polygon class="st0" points="10.2,51.2 41.2,51.2 39.2,58.6 17.2,58.6 15.1,66.3 34.5,66.3 32.5,73.7 13.1,73.7 11,81.7 33.4,81.7 31.4,89.1 0,89.1 "></polygon> <polygon class="st0" points="54.1,69.8 45.3,51.2 55.9,51.2 61.2,63.5 73.2,51.2 83.5,51.2 64.8,69.7 74,89.1 63.4,89.1 57.6,76.1 44.8,89.1 34.5,89.1 "></polygon> <path class="st0" d="M89.2,51.2H106c9.8,0,14.3,5.4,12.2,13.2c-2.3,8.8-11,13.3-20.2,13.3h-6.9l-3,11.4H79L89.2,51.2z M100.3,70.3 c4.5,0,7.8-2.5,8.7-5.8c1-3.7-1.3-5.7-5.8-5.7h-7l-3.1,11.6H100.3z"></path> <path class="st0" d="M126.7,51.2h18.8c5.2,0,8.9,1.4,11,3.8c1.7,2.1,2.2,5.1,1.2,8.8c-1.6,6.1-6.3,10-12,11.7l6.4,13.5h-10.6 L135.9,77h-7l-3.3,12.1h-9.1L126.7,51.2z M140,69.6c4.4,0,7.5-2.2,8.4-5.5c1-3.6-1.3-5.4-5.7-5.4h-9l-2.9,10.9H140z"></path> <polygon class="st0" points="167.6,51.2 198.7,51.2 196.7,58.6 174.6,58.6 172.5,66.3 192,66.3 190,73.7 170.5,73.7 168.4,81.7 190.8,81.7 188.8,89.1 157.4,89.1 "></polygon> <path class="st0" d="M193.7,83.6l6.9-5.9c3,2.8,6.4,4.6,11.1,4.6c3.7,0,6.3-1.4,6.9-3.7c0.6-2.1-0.6-3.2-7-4.8 c-7.8-1.9-12.6-4.1-10.5-11.7c1.8-6.9,9.1-11.4,17.5-11.4c6,0,10.7,1.7,14,4.8l-6.4,6.3c-3-2.3-6.2-3.7-9.7-3.7 c-3.5,0-5.7,1.5-6.2,3.4c-0.7,2.5,0.9,3.3,7.6,5c7.8,2,11.8,4.8,10,11.5c-2,7.5-9.4,11.7-18.3,11.7 C203.4,89.7,197.6,87.6,193.7,83.6"></path> <path class="st0" d="M229.1,83.6l6.9-5.9c3,2.8,6.4,4.6,11.1,4.6c3.7,0,6.3-1.4,6.9-3.7c0.6-2.1-0.6-3.2-7-4.8 c-7.8-1.9-12.6-4.1-10.5-11.7c1.8-6.9,9.1-11.4,17.5-11.4c6,0,10.7,1.7,14,4.8l-6.4,6.3c-3-2.3-6.2-3.7-9.7-3.7 c-3.5,0-5.7,1.5-6.2,3.4c-0.7,2.5,0.9,3.3,7.6,5c7.8,2,11.8,4.8,10,11.5c-2,7.5-9.4,11.7-18.3,11.7C238.7,89.7,233,87.6,229.1,83.6"></path> <polygon class="st1" points="171.9,114.3 165.1,139.6 280.8,139.6 248.1,172.3 266,190.1 341.7,114.3 "></polygon> <rect class="st2" width="341.7" height="190.1"></rect> </svg> 